<?xml version="1.0" encoding="UTF-8"?>
<svg version="1.1" viewBox="0 0 60 60" xmlns="http://www.w3.org/2000/svg">
<g fill="none" fill-rule="evenodd">
<path d="m30 60c16.569 0 30-13.431 30-30s-13.431-30-30-30-30 13.431-30 30 13.431 30 30 30z" fill="#4C84F1"/>
<path d="m17.308 25.385c0 6.3731 11.538 21.279 11.538 20.874 0-0.4048 11.538-14.501 11.538-20.874s-5.1692-11.538-11.538-11.538c-6.3692 0-11.538 5.1654-11.538 11.538zm5.7692-1.1538c0 3.1865 2.5846 5.7692 5.7692 5.7692 3.1846 0 5.7692-2.5827 5.7692-5.7692 0-3.1865-2.5846-5.7692-5.7692-5.7692-3.1846 0-5.7692 2.5827-5.7692 5.7692z" fill="#fff"/>
</g>
</svg>
